<?xml version="1.0" encoding="utf-8"?>
<!-- Generator: Adobe Illustrator 19.0.0, SVG Export Plug-In . SVG Version: 6.00 Build 0)  -->
<svg version="1.1" id="Layer_1" xmlns="http://www.w3.org/2000/svg" xmlns:xlink="http://www.w3.org/1999/xlink" x="0px" y="0px"
	 viewBox="0 0 96 96" style="enable-background:new 0 0 96 96;" xml:space="preserve">
<style type="text/css">
	.st0{fill:#95A5A6;}
	.st1{fill:#BDC3C7;}
</style>
<g id="XMLID_1_">
	<path id="XMLID_3_" class="st0" d="M28.2,18.3c-3.1,0-5.7,2.5-5.7,5.7v22.6v11.3v17c0,3.1,2.5,5.7,5.7,5.7h39.6
		c3.1,0,5.7-2.5,5.7-5.7v-17V46.6V35.3l-17-17H28.2z"/>
	<path id="XMLID_4_" class="st1" d="M28.2,15.5c-3.1,0-5.7,2.5-5.7,5.7v22.6v11.3v17c0,3.1,2.5,5.7,5.7,5.7h39.6
		c3.1,0,5.7-2.5,5.7-5.7v-17V43.8V32.5l-17-17H28.2z"/>
	<path id="XMLID_5_" class="st0" d="M73.4,32.5l-17-17v11.3c0,3.1,2.5,5.7,5.7,5.7H73.4z"/>
</g>
</svg>
