<?xml version="1.0" encoding="utf-8"?>
<!-- Generator: Adobe Illustrator 19.0.0, SVG Export Plug-In . SVG Version: 6.00 Build 0)  -->
<svg version="1.1" id="Layer_1" xmlns="http://www.w3.org/2000/svg" xmlns:xlink="http://www.w3.org/1999/xlink" x="0px" y="0px"
	 viewBox="0 0 96 96" style="enable-background:new 0 0 96 96;" xml:space="preserve">
<style type="text/css">
	.st0{fill:#333333;}
</style>
<g id="XMLID_2_">
	<path id="XMLID_9_" class="st0" d="M71.4,33.9c0.3,0.3,0.6,0.7,0.9,1.2H56.6V19.3c0.5,0.3,0.9,0.6,1.2,0.9L71.4,33.9z M55.5,39.4
		h18.2v35.4c0,0.9-0.3,1.7-0.9,2.3S71.4,78,70.5,78h-45c-0.9,0-1.7-0.3-2.3-0.9c-0.6-0.6-0.9-1.4-0.9-2.3V21.2
		c0-0.9,0.3-1.7,0.9-2.3c0.6-0.6,1.4-0.9,2.3-0.9h26.8v18.2c0,0.9,0.3,1.7,0.9,2.3C53.8,39.1,54.6,39.4,55.5,39.4z M60.9,64.1v-2.1
		c0-0.3-0.1-0.6-0.3-0.8c-0.2-0.2-0.5-0.3-0.8-0.3H36.2c-0.3,0-0.6,0.1-0.8,0.3c-0.2,0.2-0.3,0.5-0.3,0.8v2.1c0,0.3,0.1,0.6,0.3,0.8
		c0.2,0.2,0.5,0.3,0.8,0.3h23.6c0.3,0,0.6-0.1,0.8-0.3C60.8,64.6,60.9,64.4,60.9,64.1z M60.9,55.5v-2.1c0-0.3-0.1-0.6-0.3-0.8
		c-0.2-0.2-0.5-0.3-0.8-0.3H36.2c-0.3,0-0.6,0.1-0.8,0.3c-0.2,0.2-0.3,0.5-0.3,0.8v2.1c0,0.3,0.1,0.6,0.3,0.8
		c0.2,0.2,0.5,0.3,0.8,0.3h23.6c0.3,0,0.6-0.1,0.8-0.3C60.8,56.1,60.9,55.8,60.9,55.5z M60.9,46.9v-2.1c0-0.3-0.1-0.6-0.3-0.8
		c-0.2-0.2-0.5-0.3-0.8-0.3H36.2c-0.3,0-0.6,0.1-0.8,0.3c-0.2,0.2-0.3,0.5-0.3,0.8v2.1c0,0.3,0.1,0.6,0.3,0.8
		c0.2,0.2,0.5,0.3,0.8,0.3h23.6c0.3,0,0.6-0.1,0.8-0.3C60.8,47.5,60.9,47.2,60.9,46.9z"/>
</g>
</svg>
